<?xml version="1.0" encoding="UTF-8"?>
<svg id="Layer_1" data-name="Layer 1" xmlns="http://www.w3.org/2000/svg" version="1.1" viewBox="0 0 1000 1000">
  <defs>
    <style>
      .cls-1 {
        fill: #f4f4f4;
        stroke-width: 0px;
      }
    </style>
  </defs>
  <path class="cls-1" d="M697.61,73.98c-30.35,75.69-60.7,151.39-91.06,227.08.65.45,1.29.9,1.94,1.35,47.23-67.37,94.46-134.74,141.69-202.1,2.26,1.41,4.52,2.82,6.78,4.23-42.64,73.15-85.29,146.3-127.93,219.44.64.45,1.29.9,1.93,1.35,57.95-62.38,115.9-124.75,173.85-187.13,1.97,1.64,3.94,3.27,5.92,4.91-54.06,69.92-111.01,137.65-162.98,209.67,68.64-56.57,137.29-113.14,205.93-169.71,1.77,2.03,3.54,4.06,5.32,6.09-68.37,63.58-136.73,127.15-205.1,190.73.36.57.72,1.13,1.08,1.7,80.31-49.33,160.61-98.66,240.92-148,1.5,2.31,3,4.62,4.5,6.93-76.82,53.78-153.63,107.56-230.45,161.34.33.56.66,1.12,1,1.68,86.32-38.01,172.64-76.03,258.97-114.04,1.19,1.58,2.37,3.16,3.56,4.74-4.52,3.44-8.63,7.66-13.61,10.21-60.8,31.14-121.75,62.02-182.62,93.02-16.11,8.2-32.12,16.61-47.13,27.65,88.73-25.21,177.46-50.42,266.19-75.64.83,2.52,1.66,5.04,2.48,7.56-80.92,30.88-163.23,58.12-244.13,90.88,86.38-11.82,172.76-23.63,259.14-35.45.49,2.79.99,5.59,1.48,8.38-84.37,18-168.73,36-253.1,54,0,1.1-.02,2.21-.02,3.31h257.71c.11,2.59.23,5.17.34,7.76-81.16,6.54-162.31,13.08-243.47,19.61-.05.91-.09,1.82-.14,2.73,81.05,11.37,162.1,22.75,243.16,34.12-.3,2.86-.59,5.72-.89,8.57-73.84-4.1-147.67-8.21-221.51-12.31-.56,1.43-1.11,2.87-1.67,4.3,4.99,2.68,9.7,6.36,15.03,7.88,60.47,17.18,121.05,34,181.57,51.03,5.72,1.61,11.21,4,16.81,6.03-.58,2.28-1.17,4.55-1.75,6.83-61.44-11.68-122.87-23.36-184.31-35.04-1.09,1.43-2.18,2.86-3.27,4.3,9.65,7.95,18.18,18.32,29.16,23.42,41.42,19.28,83.67,36.8,125.54,55.13,4.9,2.15,9.42,5.19,14.11,7.81-.83,2.06-1.67,4.12-2.5,6.19-42.42-14.2-84.83-28.39-126.61-42.37,14.28,51.59,62.69,67.89,99.62,97.53-42.38-14.8-80.43-44.08-129.73-26.83,30.87,25.48,62.53,51.61,94.2,77.73-.83,1.55-1.66,3.09-2.48,4.64-4.12-1.64-8.71-2.6-12.3-5.03-34.28-23.28-68.8-46.24-102.36-70.53-13.41-9.7-26.79-11.99-45.15-8.39,40.27,43.78,79.26,86.17,118.26,128.56-1.52,1.61-3.04,3.23-4.56,4.84-4.66-3.58-9.61-6.85-13.95-10.8-41.82-38.04-83.37-76.37-125.47-114.09-5.9-5.29-14.34-7.75-21.61-11.51-.86,1.42-1.72,2.85-2.58,4.27,39.07,56.58,78.14,113.17,117.21,169.75-2.06,1.59-4.13,3.19-6.19,4.78-49.45-59.48-98.9-118.97-148.35-178.45-1.53,1.05-3.06,2.09-4.6,3.14,34.22,68.59,68.44,137.17,102.65,205.76l-7.03,3.88c-43-69.9-86-139.8-129-209.7-.88.37-1.76.74-2.64,1.11,25.88,77.16,51.77,154.31,77.65,231.47l-5.08,2.86c-3.01-4.52-6.82-8.7-8.9-13.61-29.4-69.28-58.55-138.66-87.79-208-1.83-4.34-3.92-8.56-8.63-12.14,15.37,83.32,30.73,166.65,46.1,249.97-2.74.62-5.48,1.24-8.22,1.86-22.05-83.6-44.11-167.21-66.16-250.81-.72.13-1.44.25-2.16.38,3.49,86.74,6.97,173.48,10.46,260.23-2.93.21-5.86.42-8.8.63-9.57-85.98-19.14-171.96-28.71-257.93-.7-.12-1.41-.23-2.11-.35-9.33,86.18-18.67,172.37-28,258.55-2.85-.21-5.71-.42-8.56-.63,2.67-86.43,5.34-172.87,8.01-259.3-.81-.18-1.62-.35-2.43-.53-21.27,83.64-42.55,167.28-63.82,250.92-2.76-.57-5.53-1.14-8.29-1.71,14.04-81.54,28.08-163.07,42.13-244.61-.94-.31-1.87-.61-2.81-.92-31.9,76.51-63.81,153.01-95.71,229.52-2.6-.93-5.19-1.86-7.79-2.8,24.66-77.26,49.33-154.51,73.99-231.77-.69-.31-1.39-.63-2.08-.94-42.02,70.03-84.05,140.06-126.07,210.1-2.38-1.24-4.75-2.48-7.13-3.72,33.19-68.46,66.39-136.92,99.58-205.38-1.63-1.09-3.26-2.17-4.89-3.26-48.58,59.78-97.16,119.55-145.74,179.33-2.12-1.55-4.24-3.1-6.36-4.65,38.62-57.24,77.24-114.48,115.86-171.71-1.06-1.45-2.11-2.91-3.17-4.36-6.87,3.72-14.85,6.22-20.43,11.35-42.02,38.6-83.55,77.74-125.3,116.65-4.08,3.81-8.6,7.15-15.35,8.35,34.74-46.17,74.99-87.42,113.99-132.3-18.12-3.37-31.8-1.18-45.46,8.99-32.38,24.08-65.79,46.77-98.85,69.93-4.05,2.84-8.48,5.14-12.73,7.69-1.41-1.8-2.83-3.6-4.24-5.39,31.29-26.48,62.59-52.96,94.08-79.61-48.92-14.47-88.16,11.24-128.37,32.79-.93-1.61-1.87-3.22-2.8-4.84,2.3-2.68,4.16-6.01,6.98-7.91,8.02-5.41,15.99-11.22,24.77-15.12,33.15-14.7,50.97-43.1,68.04-74.85-43.12,14.93-84.95,29.42-126.77,43.9-.94-2.04-1.88-4.07-2.81-6.11,6.39-3.55,12.56-7.59,19.2-10.57,38.76-17.38,77.96-33.81,116.25-52.16,11.67-5.59,20.91-16.25,31.26-24.59-1.03-1.6-2.06-3.19-3.09-4.79-60.67,12.16-121.34,24.33-182.02,36.49-.63-2.11-1.25-4.22-1.88-6.33,5.82-2.45,11.47-5.48,17.49-7.24,58.79-17.19,117.66-34.08,176.43-51.32,5.99-1.76,11.46-5.3,17.17-8.01-.54-1.64-1.08-3.28-1.62-4.92-73.3,4.71-146.59,9.41-219.89,14.12-.3-2.63-.61-5.26-.91-7.89,79.91-14.27,160.66-23.74,240.96-39.87-80.63-5.77-161.26-11.54-241.9-17.31.11-2.64.22-5.27.32-7.91h257.76c.12-1.74.23-3.47.35-5.21-84.55-17.26-169.1-34.52-253.65-51.77.49-2.82.98-5.63,1.46-8.45,87.7,11.14,175.4,22.27,263.11,33.41.2-.7.41-1.4.61-2.11-83.53-28.81-167.05-57.61-250.58-86.42.83-2.73,1.67-5.45,2.5-8.18,89.19,24.48,178.39,48.96,267.58,73.45-80.78-44.14-164.05-83.25-245.06-126.63,1.09-2.29,2.18-4.58,3.27-6.87,83.87,35.84,167.74,71.68,251.6,107.52.42-.71.84-1.41,1.26-2.12-74.75-51.73-149.5-103.47-224.24-155.2,1.48-2.27,2.96-4.55,4.44-6.82,78.19,46.95,156.39,93.89,234.58,140.84.59-.7,1.17-1.4,1.76-2.1-66.52-61.18-133.04-122.35-199.56-183.53,1.77-2.03,3.54-4.06,5.31-6.1,70.51,57.19,141.02,114.38,211.53,171.56.45-.38.9-.77,1.35-1.15-56.89-70.11-113.78-140.22-170.66-210.33,1.51-1.43,3.02-2.86,4.54-4.3,22.42,16.99,39.21,40.08,58.91,59.95,20.46,20.64,39.92,42.27,59.84,63.45,19.86,21.13,39.74,42.23,61.89,61.77-43.73-73.22-87.46-146.43-130.92-219.2,2.06-1.99,2.4-2.46,2.85-2.72.45-.25,1.09-.52,1.52-.38,1.46.46,3.2.74,4.23,1.72,1.93,1.83,3.55,4.03,5.11,6.21,45.07,62.98,90.12,125.98,137.81,187.79-30.97-74.82-61.95-149.64-92.92-224.45,2.04-1.02,4.07-2.04,6.11-3.06,20.88,31.97,36.03,67.31,54.13,100.88,18.58,34.46,36.2,69.44,54.24,104.19,1.65-.49,3.31-.98,4.96-1.47-18.82-74.55-37.64-149.09-56.46-223.64,2.6-.78,5.2-1.56,7.8-2.34,22.39,63.57,44.78,127.14,67.16,190.72,1.86.07,3.72.14,5.58.21,1.27-7.52,4.26-15.2,3.54-22.52-5.55-56.17-11.86-112.26-17.78-168.39-.42-3.96.39-8.05,2.66-12.43,11.91,14.48,10.66,32.75,14.43,49.41,4.03,17.81,7.44,35.77,11.02,53.68,3.56,17.84,6.99,35.72,11.4,58.29,10.14-17.44,21.77-28.19,21.76-46.72,0-33.88,2.06-67.77,3.57-101.64.29-6.62,1.97-13.19,3.01-19.78,1.64-.07,3.29-.15,4.93-.22.8,5.13,2.05,10.23,2.33,15.39,1.84,33.84,3.1,67.72,5.31,101.53,1.54,23.66,3.09,25.91,22.66,49.37,10.33-54.9,20.29-107.85,30.25-160.8,1.9.07,3.8.14,5.7.21.38,5.13,1.49,10.32,1.03,15.37-4.89,53.02-10.04,106.02-15.12,159.02-1.05,10.96-4.01,22.4,8.6,31.62,22.12-65.26,43.88-129.43,65.64-193.6,2.22.52,4.44,1.03,6.67,1.55-1.91,25.07-10.92,49.06-16.04,73.58-5.26,25.22-12.03,50.13-18.18,75.17-6.23,25.36-12.51,50.71-18.77,76.07,1.59.69,3.18,1.38,4.76,2.06,35.18-69.16,70.35-138.32,105.53-207.48,2.44,1.14,4.89,2.28,7.33,3.42ZM497.74,184.6c-108.71,168.04-215.96,333.82-322.97,499.24h652.14c-110.52-167.61-218.8-331.85-329.17-499.24Z"/>
  <path class="cls-1" d="M690.06,492.58c-52.23,38.89-103.17,74.17-167.31,83.56-28.44,4.17-55.84.31-82.14-9.98-16.43-6.43-32.16-14.93-47.59-23.59-29.24-16.42-58.04-33.62-88.44-51.31.99-1.39,2.59-5.8,5.72-7.67,47.85-28.6,94.6-59.42,144.3-84.38,39.36-19.77,82.77-16.42,121.21,4.99,28.78,16.03,54.47,37.76,80.91,57.78,11.4,8.64,21.22,19.37,33.33,30.61ZM651.58,495.4c.16-1.84.33-3.68.49-5.51-22.81-13.48-45.63-26.95-72.87-43.04,12.13,32.59,10.82,59.71-4.85,85.74,1.09.9,2.17,1.8,3.26,2.7,24.66-13.3,49.31-26.59,73.97-39.89ZM344.72,486.22c25.74,15.39,51.93,31.05,75.8,45.32v-76.06c-25.6,10.38-50.67,20.55-75.8,30.74ZM549.14,501.63c16.49-39.9-15.84-81.54-47.41-66.49,15.02,21.66,44.58,32.34,47.41,66.49ZM452.73,486.14c-12.98,22.9-1.2,43.08,25.47,52-7.57-15.45-16.09-32.85-25.47-52Z"/>
  <path class="cls-1" d="M498.07,350.92c-3.76,0-7.53,0-11.29,0-32.73.08-33.19-.65-30.79-33.37.63-8.61,3.59-12.73,12.62-12.58,19.9.32,39.8.39,59.7.08,9.2-.14,11.81,4.19,12.35,12.71,2.08,32.71,2.23,32.77-31.29,32.91-3.76.02-7.53,0-11.29,0,0,.08,0,.17,0,.25Z"/>
  <path class="cls-1" d="M363.77,573.61c4.29.02,8.57.02,12.86.02,28.49-.03,35.24,8.35,27.88,36.41-.94,3.61-7.12,8.14-11.03,8.28-20.32.76-40.72.78-61.02-.32-3.74-.2-7.16-6.71-10.67-10.37-.26-.27.03-1.04,0-1.57q-2.07-32.54,41.98-32.45Z"/>
  <path class="cls-1" d="M633,618.42c-3.75,0-7.5.02-11.26,0-33.22-.19-33.92-.59-29.99-33.12.51-4.26,7.06-10.87,11.11-11.11,19.76-1.14,39.63-.39,59.46-.51,9.06-.06,11.6,4.54,12.02,13.05,1.58,32.17,1.82,32.15-30.08,31.9-3.75-.03-7.5,0-11.26,0v-.2Z"/>
  <path class="cls-1" d="M497.68,671.67c-8.61.02-17.29-.74-25.8.19-13.38,1.47-17.45-4.56-16.13-16.82.57-5.32-1.35-11.37.58-15.95,1.93-4.58,7.08-10.77,11.1-10.98,19.84-1.07,39.78-.09,59.67-.47,9.74-.19,13,3.78,13.46,13.3,1.48,30.69,1.79,30.68-28.36,30.7-4.84,0-9.68,0-14.52.02Z"/>
  <path class="cls-1" d="M265.24,564.93c10.34-16.67,17.4-29.2,25.64-40.9,5.22-7.4,37.76-8.78,48.81-2.17,12.44,7.45,28.97,12.72,24.54,32.67-.85,3.84-4.89,9.88-7.58,9.95-28.77.72-57.57.45-91.4.45Z"/>
  <path class="cls-1" d="M409.33,671.66c-5.89-.02-11.84.51-17.65-.15-8.08-.92-21.8-.88-22.97-4.52-3.28-10.16-1.99-22.06-.94-33.12.23-2.38,7.01-5.76,10.86-5.89,19.79-.66,39.61-.12,59.41-.59,9.15-.22,11.89,3.68,12.34,12.39,1.67,31.99,1.93,31.98-29.8,31.9-3.75,0-7.49,0-11.24-.02Z"/>
  <path class="cls-1" d="M676.23,627.55c4.83-.01,9.65-.03,14.48,0,28.02.1,35.28,9.3,27.71,36.48-.9,3.22-6.45,7.19-9.96,7.31-20.89.7-41.83.79-62.71-.07-3.23-.13-6.23-6.18-9.27-9.55-.27-.3-.03-1.04-.06-1.58q-2.13-32.55,39.8-32.58Z"/>
  <path class="cls-1" d="M318.97,671.73c-5.38.01-10.77.07-16.15,0-29.48-.4-24.8,3.1-25.79-25.96-.48-13.98,3.7-19.42,18.22-18.39,16.61,1.18,33.37.63,50.05.18,9.87-.27,14.89,2.45,14.76,13.53-.41,36.7,2,30.06-29.78,30.62-3.77.07-7.54,0-11.31.02Z"/>
  <path class="cls-1" d="M587.27,671.67c-5.36-.02-10.72,0-16.07-.02-25.33-.08-24.51-.11-25.38-25.22-.51-14.73,4-20.29,19.04-19.21,16.53,1.18,33.21.78,49.8.24,10.04-.32,14.58,2.56,14.35,13.49-.79,37.04,3.29,30.11-28.88,30.72-4.28.08-8.57.01-12.86,0Z"/>
  <path class="cls-1" d="M764.57,618.01c-26.29,0-51.65.24-76.99-.43-2.19-.06-5.63-5.93-6.11-9.42-4.38-32.14-2.13-34.52,30.43-34.57,32.71-.05,41.62,7.01,52.67,44.42Z"/>
  <path class="cls-1" d="M452.67,618.82c-3.75,0-7.51,0-11.26,0-31.02-.02-30.5-.01-29.83-30.69.26-11.86,5.66-15.94,15.78-14.07,20.47,3.77,41.06,7.56,60.84,13.77,3.9,1.23,5.9,13.43,5.76,20.51-.07,3.56-6.56,9.37-10.77,9.99-9.97,1.48-20.31.48-30.5.48Z"/>
  <path class="cls-1" d="M542.84,618.73c-8.61,0-17.24-.33-25.83.09-10.31.5-16.23-2.34-16-14.28.2-11.03,1.59-17.59,15.45-18.71,16.93-1.37,33.68-6.11,50.23-10.43,12.47-3.25,17.97-.37,18.33,13.33.77,30.16,1.19,30.15-29.26,30.15-4.31,0-8.61,0-12.92,0v-.13Z"/>
  <path class="cls-1" d="M735.14,564.84c-32.59,0-60.16.45-87.69-.26-8.88-.23-11.52-14.14-5.01-23.14,10.25-14.2,43.63-25.58,60.91-20.52,2.38.7,5.05,2.32,6.38,4.32,7.64,11.45,14.92,23.14,25.42,39.6Z"/>
  <path class="cls-1" d="M230.61,617.34c10.53-15.85,17.14-28.83,26.77-38.93,4.38-4.6,14.71-3.62,22.39-4.92,2.6-.44,5.34-.08,8.02-.08,26.06,0,35.21,12.74,26.72,37.71-.84,2.48-4.03,5.91-6.19,5.94-24.32.42-48.66.27-77.71.27Z"/>
  <path class="cls-1" d="M806.8,671.37c-27.65,0-50.94.21-74.2-.33-2.36-.05-4.84-4.47-6.79-7.2-.79-1.11-.64-3.18-.35-4.71,1.97-10.35.6-25.42,6.88-30.03,12.94-9.5,46.53.1,54.25,11.66,5.87,8.79,11.66,17.64,20.22,30.61Z"/>
  <path class="cls-1" d="M199.53,667.02c7.8-11.42,13.24-27.14,24.05-33.08,11.71-6.44,28.43-4.17,42.97-4.26,1.12,0,3.2,11.35,3.31,17.45.43,24.69.2,24.69-23.82,24.67-14.82,0-29.64,0-44.46,0-.68-1.59-1.36-3.19-2.04-4.78Z"/>
  <path class="cls-1" d="M415.26,399.81c-.34-.42-.9-.8-.98-1.26q-6.2-39.6,32.64-39.39c11.81.06,23.73-.86,35.38.55,4.62.56,8.63,6.24,12.91,9.58-3.52,4.13-6.31,10.67-10.68,11.99-22.87,6.9-46.14,12.49-69.26,18.53Z"/>
  <path class="cls-1" d="M585.12,391.08c-27.31-3.84-51.42-6.81-75.31-11.06-3.27-.58-7.08-7.32-7.49-11.51-.27-2.79,4.97-8.7,7.91-8.81,21.93-.77,43.91-.79,65.84-.08,3.1.1,8.09,5.07,8.64,8.38,1.29,7.68.41,15.72.41,23.08Z"/>
  <path class="cls-1" d="M436.13,296.67c10.8-16.63,17.32-30.5,27.5-40.7,4.93-4.94,16.92-4.44,25.33-3.38,2.69.34,4.8,10.24,5.98,16.01.95,4.63-.06,9.63.06,14.46.23,9.12-3.2,14.05-13.21,13.72-13.32-.44-26.66-.11-45.66-.11Z"/>
  <path class="cls-1" d="M552.1,296.59c-13.29,0-26.66.82-39.81-.51-3.88-.39-8.92-6.31-10.25-10.66-1.8-5.89-1.43-12.89-.3-19.1.93-5.11,3.53-13.15,6.79-13.91,6.67-1.56,17.27-1.82,20.92,2.21,10.08,11.14,17.43,24.77,25.85,37.41-1.07,1.52-2.13,3.04-3.2,4.56Z"/>
  <path class="cls-1" d="M403.83,346.78c8.67-13.34,15.74-25.84,24.6-36.9,2.78-3.47,10.76-4.89,15.6-3.82,2.91.65,5.92,7.84,6.18,12.25,1.96,33.47-7.88,40.04-46.38,28.47Z"/>
  <path class="cls-1" d="M587.89,350.18c-10.56,0-21.24.88-31.63-.48-3.64-.48-8.63-6.07-9.37-10.01-1.46-7.8-.99-16.14-.1-24.11.4-3.54,3.28-8.98,5.93-9.58,4.02-.91,10.74.17,12.95,3.01,9.07,11.71,16.88,24.4,25.15,36.73-.98,1.48-1.95,2.96-2.93,4.44Z"/>
  <path class="cls-1" d="M598.19,358.18c10.07,14.2,20.14,28.4,30.21,42.6-.77,1.89-1.54,3.77-2.31,5.66-10.2-1.91-26.02-.58-29.38-6.42-6.11-10.62-4.82-25.51-6.62-38.61,2.7-1.08,5.4-2.15,8.1-3.23Z"/>
  <path class="cls-1" d="M405.09,356.59c0,11.47.06,17.32-.01,23.17-.35,26.94-4.42,29.88-34.26,22.42,9.78-15.19,14.34-32.96,34.27-45.59Z"/>
  <path class="cls-1" d="M498.16,203.39c8.74,13.38,15.77,24.14,24.67,37.77h-50.97c9.35-13.43,16.89-24.26,26.29-37.77Z"/>
  <path class="cls-1" d="M394.21,417.12c-14.46,8.45-27.81,16.26-42.51,24.85,7.69-28.73,19.62-36.44,42.51-24.85Z"/>
  <path class="cls-1" d="M375.56,543.22c9.34,5.97,18.69,11.95,28.03,17.92-.4,1.8-.8,3.6-1.2,5.4-9.17-.72-18.92.12-27.22-2.96-3.05-1.13-2.66-11.51-3.85-17.67,1.41-.9,2.82-1.79,4.23-2.69Z"/>
  <path class="cls-1" d="M614.91,413.85c23.11-4.31,32.45,3.23,39.13,31.25-14.22-11.36-25.68-20.51-39.13-31.25Z"/>
  <path class="cls-1" d="M631.92,545.85c1.4,19.39-3.11,21.79-25.85,14.75,9.29-5.3,16.53-9.43,25.85-14.75Z"/>
</svg>