<svg viewBox="0 0 321 319" fill="none" xmlns="http://www.w3.org/2000/svg"><path d="M91.632 303.19l6.288 2.8a2.298 2.298 0 003.03-1.163l44.84-100.71a2.299 2.299 0 00.005-1.842 2.313 2.313 0 00-1.348-1.258 45.545 45.545 0 01-5.937-2.64 2.3 2.3 0 00-3.203 1.075L90.47 300.16a2.293 2.293 0 001.162 3.03zm28.92-117.43l-81.95 73.777a2.298 2.298 0 00-.17 3.25l4.608 5.115a2.291 2.291 0 003.25.17l81.94-73.78a2.3 2.3 0 00.035-3.375 45.941 45.941 0 01-4.353-4.832 2.286 2.286 0 00-1.609-.897 2.298 2.298 0 00-1.751.572zM6.29 204.222l2.127 6.548a2.296 2.296 0 002.002 1.578c.3.023.602-.013.888-.106l104.853-34.067a2.308 2.308 0 001.405-3.073 45.718 45.718 0 01-2-6.18 2.3 2.3 0 00-2.94-1.66L7.762 201.332a2.303 2.303 0 00-1.335 1.14 2.29 2.29 0 00-.137 1.75zM22.73 74.58l-3.44 5.962a2.29 2.29 0 00.84 3.133l95.472 55.127a2.303 2.303 0 003.22-1 45.46 45.46 0 013.25-5.622 2.3 2.3 0 00-.735-3.3L25.865 73.737a2.298 2.298 0 00-3.135.843zm45.752-48.673l-5.567 4.045a2.295 2.295 0 00-.5 3.205l64.81 89.215a2.302 2.302 0 003.355.385 46.214 46.214 0 015.25-3.827 2.29 2.29 0 001.047-2.449 2.302 2.302 0 00-.382-.859L71.687 26.415a2.295 2.295 0 00-3.205-.508zM130.077.05l-6.725 1.437a2.295 2.295 0 00-1.767 2.723l22.917 107.85c.068.31.198.603.383.86a2.296 2.296 0 002.525.86 45.503 45.503 0 016.357-1.345 2.307 2.307 0 001.58-.948 2.292 2.292 0 00.378-1.802L132.797 1.817a2.292 2.292 0 00-2.72-1.767zm66.775 1.437l-6.735-1.43a2.293 2.293 0 00-2.72 1.768L164.47 109.69a2.295 2.295 0 001.069 2.441c.271.163.574.268.888.309 2.149.296 4.273.746 6.358 1.345a2.305 2.305 0 002.907-1.72L198.62 4.207a2.3 2.3 0 00-1.768-2.72zm60.438 28.465l-5.568-4.045a2.295 2.295 0 00-3.205.5l-64.812 89.215a2.304 2.304 0 00-.02 2.664c.182.259.415.478.685.644a46.303 46.303 0 015.25 3.827 2.29 2.29 0 001.761.54 2.31 2.31 0 001.594-.925l64.817-89.215a2.292 2.292 0 00-.502-3.205zm43.625 50.59l-3.44-5.962a2.3 2.3 0 00-3.123-.843l-95.5 55.135a2.311 2.311 0 00-1.101 2.432c.061.311.186.607.366.868a45.4 45.4 0 013.25 5.623 2.3 2.3 0 002.327 1.291c.315-.035.619-.134.893-.291l95.483-55.128a2.289 2.289 0 00.845-3.125zm-96.87 97.633l104.852 34.062a2.304 2.304 0 002.453-.691 2.29 2.29 0 00.437-.781l2.128-6.548a2.287 2.287 0 00-.137-1.75 2.296 2.296 0 00-1.336-1.14l-104.86-34.065a2.3 2.3 0 00-2.94 1.66 45.578 45.578 0 01-2 6.18 2.312 2.312 0 00.031 1.843 2.314 2.314 0 001.372 1.23zm-12.07 16.107l81.94 73.78a2.28 2.28 0 002.531.37c.273-.131.517-.314.719-.54l4.607-5.115a2.286 2.286 0 00.591-1.66 2.293 2.293 0 00-.761-1.59l-81.95-73.767a2.286 2.286 0 00-1.748-.577 2.295 2.295 0 00-1.612.892 45.722 45.722 0 01-4.352 4.832 2.309 2.309 0 00-.72 1.695 2.294 2.294 0 00.755 1.68zm30.31 111.705l6.287-2.8a2.296 2.296 0 001.163-3.03L184.897 199.45a2.296 2.296 0 00-3.202-1.075 45.632 45.632 0 01-5.938 2.64 2.308 2.308 0 00-1.342 3.1l44.84 100.71a2.295 2.295 0 003.03 1.162zm-67.918-100.06v110.25a2.295 2.295 0 002.293 2.295h6.885a2.3 2.3 0 001.622-.672 2.285 2.285 0 00.67-1.623v-110.25a2.292 2.292 0 00-.724-1.676 2.298 2.298 0 00-1.721-.611 43.106 43.106 0 01-6.579 0 2.298 2.298 0 00-1.721.611 2.308 2.308 0 00-.537.763 2.31 2.31 0 00-.188.913zm-41.465-58.752L3.257 135.612a2.297 2.297 0 00-2.523 2.043L.013 144.5a2.295 2.295 0 002.043 2.522l109.645 11.56a2.289 2.289 0 001.742-.544c.237-.205.43-.457.565-.741.136-.283.212-.591.223-.905.032-1.09.105-2.186.22-3.287.115-1.102.272-2.185.47-3.25a2.284 2.284 0 00-2.018-2.68zm94.4 0l109.645-11.563a2.305 2.305 0 012.257 1.188c.144.264.234.555.266.855l.722 6.845a2.294 2.294 0 01-2.042 2.522l-109.645 11.56a2.286 2.286 0 01-2.53-2.19 45.756 45.756 0 00-.22-3.287 39.343 39.343 0 00-.47-3.25 2.284 2.284 0 012.017-2.68z" fill="#000"/></svg>